{"title":"Minions.2015.HDRip.x264-MenaceIISociety","uid":12292268,"size":1037386967,"categoryP":"video","categoryS":"movies","magnet":"?xt=urn:btih:f43dc3cb67ce91d1d0e730610be839f29972d774&amp;dn=Minions.2015.HDRip.x264-MenaceIISociety&amp;tr=udp%3A%2F%2Ftracker.openbittorrent.com%3A80&amp;tr=udp%3A%2F%2Fopen.demonii.com%3A1337&amp;tr=udp%3A%2F%2Ftracker.coppersurfer.tk%3A6969&amp;tr=udp%3A%2F%2Fexodus.desync.com%3A6969","seeders":0,"leechers":0,"uploader":"TvTeam","files":4,"time":1440566642,"description":"------------------------------------------------------------------------\n\n &lt;a href=&quot; https://www.torrenting.com&quot; rel=&quot;nofollow&quot; target=&quot;_NEW&quot;&gt; https://www.torrenting.com&lt;/a&gt;\n\nSign up is OPEN - for time being. Come and have fun\n\n.......................................................................................................................[center][img]http://s10.postimg.org/yl3klv93d/folder.png[/img]\n\nMinions.2015.HDRip.x264-MenaceIISociety &lt;a href=&quot;\nhttp://www.imdb.com/title/tt2293640/&quot; rel=&quot;nofollow&quot; target=&quot;_NEW&quot;&gt;\nhttp://www.imdb.com/title/tt2293640/&lt;/a&gt;\n\nSource: 720p-EVO [THANKS]\n\nNOTE: lowered some gamma_y and added a bit of saturation so now it dont look as washed out, enjoy.\n\nGeneral\nComplete name                            : Minions.2015.HDRip.x264-MenaceIISociety.mp4\nFormat                                   : MPEG-4\nFormat profile                           : Base Media\nCodec ID                                 : isom\nFile size                                : 969 MiB\nDuration                                 : 1h 30mn\nOverall bit rate mode                    : Variable\nOverall bit rate                         : 1 492 Kbps\nEncoded date                             : UTC 2015-08-26 02:42:11\nTagged date                              : UTC 2015-08-26 02:42:11\n\nVideo\nID                                       : 1\nFormat                                   : AVC\nFormat/Info                              : Advanced Video Codec\nFormat profile                           : &lt;a class=&quot;__cf_email__&quot; href=&quot;/cdn-cgi/l/email-protection&quot; data-cfemail=&quot;9cd4f5fbf4dcd0a8b2ad&quot;&gt;[email&amp;#160;protected]&lt;/a&gt;&lt;script data-cfhash='f9e31' type=&quot;text/javascript&quot;&gt;\n/* &lt;![CDATA[ */!function(){try{var t=&quot;currentScript&quot;in document?document.currentScript:function(){for(var t=document.getElementsByTagName(&quot;script&quot;),e=t.length;e--;)if(t[e].getAttribute(&quot;data-cfhash&quot;))return t[e]}();if(t&amp;&amp;t.previousSibling){var e,r,n,i,c=t.previousSibling,a=c.getAttribute(&quot;data-cfemail&quot;);if(a){for(e=&quot;&quot;,r=parseInt(a.substr(0,2),16),n=2;a.length-n;n+=2)i=parseInt(a.substr(n,2),16)^r,e+=String.fromCharCode(i);e=document.createTextNode(e),c.parentNode.replaceChild(e,c)}t.parentNode.removeChild(t);}}catch(u){}}()/* ]]&gt; */&lt;/script&gt;\nFormat settings, CABAC                   : Yes\nFormat settings, ReFrames                : 3 frames\nCodec ID                                 : avc1\nCodec ID/Info                            : Advanced Video Coding\nDuration                                 : 1h 30mn\nBit rate mode                            : Variable\nBit rate                                 : 1 393 Kbps\nMaximum bit rate                         : 40.0 Mbps\nWidth                                    : 720 pixels\nHeight                                   : 384 pixels\nDisplay aspect ratio                     : 1.85:1\nFrame rate mode                          : Constant\nFrame rate                               : 24.000 fps\nColor space                              : YUV\nChroma subsampling                       : 4:2:0\nBit depth                                : 8 bits\nScan type                                : Progressive\nBits/(Pixel*Frame)                       : 0.210\nStream size                              : 905 MiB (93%)\nWriting library                          : x264 core 148 r2579 73ae2d1\n\nAudio\nID                                       : 2\nFormat                                   : AAC\nFormat/Info                              : Advanced Audio Codec\nFormat profile                           : LC\nCodec ID                                 : 40\nDuration                                 : 1h 30mn\nBit rate mode                            : Variable\nBit rate                                 : 96.0 Kbps\nMaximum bit rate                         : 119 Kbps\nChannel(s)                               : 2 channels\nChannel positions                        : Front: L R\nSampling rate                            : 48.0 KHz\nCompression mode                         : Lossy\nStream size                              : 61.5 MiB (6%)\nLanguage                                 : English\nEncoded date                             : UTC 2015-08-26 00:55:58\nTagged date                              : UTC 2015-08-26 02:44:43\n\n[img]http://s3.postimg.org/hhpsc17xf/vlcsnap_2015_08_26_04h48m12s987.jpg[/img]\n[img]http://s3.postimg.org/7yg3ikkf7/vlcsnap_2015_08_26_04h48m19s392.jpg[/img]\n[img]http://s3.postimg.org/vyd1qlxer/vlcsnap_2015_08_26_04h48m54s952.jpg[/img]\n[img]http://s3.postimg.org/lzs344nz7/vlcsnap_2015_08_26_04h49m12s601.jpg[/img]\n[img]http://s3.postimg.org/mb4y35f1f/vlcsnap_2015_08_26_04h51m36s656.jpg[/img]\n[img]http://s3.postimg.org/6tm1d6xyb/vlcsnap_2015_08_26_04h52m04s696.jpg[/img]\n[img]http://s3.postimg.org/f2xwrlroj/vlcsnap_2015_08_26_04h52m26s188.jpg[/img]\n[img]http://s3.postimg.org/yal1o7a03/vlcsnap_2015_08_26_04h53m56s861.jpg[/img]\n[img]http://s3.postimg.org/s8dexplk3/vlcsnap_2015_08_26_04h54m59s734.jpg[/img]\n[img]http://s3.postimg.org/95u1asajn/vlcsnap_2015_08_26_04h55m25s663.jpg[/img]\n[img]http://s3.postimg.org/5aqn87rdv/vlcsnap_2015_08_26_04h56m43s649.jpg[/img]\n \n[img]http://s17.postimg.org/r1iiyw8yn/Untitled_1.png[/img][/center]","torrent":{"xt":"urn:btih:f43dc3cb67ce91d1d0e730610be839f29972d774","amp;dn":"Minions.2015.HDRip.x264-MenaceIISociety","amp;tr":["udp%3A%2F%2Ftracker.openbittorrent.com%3A80","udp%3A%2F%2Fopen.demonii.com%3A1337","udp%3A%2F%2Ftracker.coppersurfer.tk%3A6969","udp%3A%2F%2Fexodus.desync.com%3A6969"],"infoHash":"f43dc3cb67ce91d1d0e730610be839f29972d774","infoHashBuffer":{"type":"Buffer","data":[244,61,195,203,103,206,145,209,208,231,48,97,11,232,57,242,153,114,215,116]},"announce":[],"urlList":[]}}